<?xml version="1.0" standalone="no"?>
<!DOCTYPE svg PUBLIC "-//W3C//DTD SVG 20010904//EN"
 "http://www.w3.org/TR/2001/REC-SVG-20010904/DTD/svg10.dtd">
<svg version="1.0" xmlns="http://www.w3.org/2000/svg"
 width="240.000000pt" height="240.000000pt" viewBox="0 0 240.000000 240.000000"
 preserveAspectRatio="xMidYMid meet">
<metadata>
Created by potrace 1.14, written by Peter Selinger 2001-2017
</metadata>
<g transform="translate(0.000000,240.000000) scale(0.100000,-0.100000)"
fill="#000000" stroke="none">
<path d="M1054 2089 c-32 -16 -52 -59 -55 -119 -3 -68 -32 -177 -63 -238 -32
-63 -84 -131 -184 -238 -175 -189 -253 -383 -248 -614 4 -146 43 -263 126
-385 58 -84 185 -190 275 -229 73 -32 94 -39 160 -51 62 -12 233 -14 275 -2
204 54 341 149 444 306 83 127 117 247 112 396 -4 143 -70 331 -169 481 -91
139 -159 139 -247 2 -38 -60 -128 -163 -136 -156 -1 2 7 36 17 77 46 180 22
369 -71 566 -83 176 -158 241 -236 204z m116 -462 c27 -146 16 -243 -40 -349
-16 -31 -30 -67 -30 -78 0 -80 150 -171 257 -156 64 8 121 42 187 109 45 46
60 57 67 46 14 -22 67 -162 74 -195 36 -174 -10 -329 -135 -454 -204 -205
-524 -198 -719 16 -124 136 -162 332 -100 523 35 107 87 184 219 324 63 67
147 186 174 246 11 22 22 38 26 36 4 -3 13 -33 20 -68z"/>
</g>
</svg>
